<?xml version="1.0" standalone="no"?>
<!DOCTYPE svg PUBLIC "-//W3C//DTD SVG 20010904//EN"
 "http://www.w3.org/TR/2001/REC-SVG-20010904/DTD/svg10.dtd">
<svg version="1.0" xmlns="http://www.w3.org/2000/svg"
 width="16.000000pt" height="16.000000pt" viewBox="0 0 16.000000 16.000000"
 preserveAspectRatio="xMidYMid meet">
<metadata>
Created by potrace 1.11, written by Peter Selinger 2001-2013
</metadata>
<g transform="translate(0.000000,16.000000) scale(0.001563,-0.001563)"
fill="#000000" stroke="none">
<path d="M4735 9889 c-981 -80 -1923 -464 -2677 -1091 l-118 -98 -690 0 -691
0 -25 -25 -25 -25 4 -978 c4 -803 7 -992 19 -1060 15 -82 15 -84 -14 -180 -61
-210 -121 -514 -154 -782 -21 -178 -30 -687 -15 -875 75 -923 377 -1738 920
-2485 115 -159 260 -330 413 -486 l138 -141 0 -202 c0 -201 0 -202 25 -226
l24 -25 252 0 252 0 136 -89 c674 -439 1433 -696 2245 -761 166 -13 556 -13
722 0 744 59 1465 288 2092 664 138 83 144 86 205 86 93 0 362 18 527 36 617
65 1035 239 1246 517 58 76 135 237 163 337 50 180 51 216 51 1135 l-1 860 25
115 c81 376 101 573 101 1015 0 294 -4 400 -18 515 -37 298 -88 556 -163 815
l-44 155 0 614 c0 673 -2 698 -60 859 -69 189 -186 324 -376 436 -195 114
-517 202 -897 245 -111 12 -132 18 -160 40 -787 639 -1698 1007 -2691 1086
-148 12 -593 11 -741 -1z m3069 -1179 c154 -6 331 -15 395 -21 774 -70 1170
-258 1315 -622 58 -145 59 -158 63 -844 l4 -633 -750 0 -751 0 0 333 0 333
-27 55 c-48 94 -140 145 -316 175 -116 20 -372 15 -460 -10 -140 -39 -237
-112 -285 -214 -25 -53 -27 -66 -26 -187 0 -115 3 -139 28 -210 98 -284 336
-561 798 -927 78 -63 280 -217 448 -343 168 -126 371 -283 453 -347 564 -451
845 -796 949 -1164 23 -79 23 -84 26 -944 2 -575 -1 -892 -8 -947 -65 -494
-371 -770 -1000 -903 -558 -118 -1542 -129 -2164 -24 -617 103 -1004 314
-1151 626 -71 151 -69 120 -73 866 l-3 672 750 0 750 0 3 -362 3 -363 34 -63
c40 -74 93 -122 176 -162 114 -53 182 -65 385 -65 166 0 193 2 260 23 193 61
301 165 346 335 20 76 18 229 -5 318 -61 238 -177 414 -451 690 -198 199 -303
289 -785 674 -430 344 -603 493 -785 675 -339 338 -514 629 -565 938 -14 85
-16 191 -12 872 3 759 4 777 26 875 45 201 118 343 240 465 86 87 159 139 281
200 273 137 728 218 1315 233 243 7 306 6 569 -3z m-5341 -1312 c3 -1215 3
-1224 26 -1363 57 -352 173 -820 268 -1074 62 -170 75 -201 82 -201 10 0 25
32 76 170 109 294 214 709 277 1096 22 138 22 148 25 1367 l4 1227 935 0 935
0 -4 -917 c-3 -634 -8 -946 -16 -1008 -34 -251 -110 -562 -201 -815 -210 -586
-619 -1320 -1042 -1871 l-58 -76 0 -1321 0 -1322 -935 0 -935 0 0 1325 0 1324
-91 123 c-121 163 -344 498 -451 678 -358 604 -600 1181 -702 1680 -60 292
-59 277 -63 1278 l-4 922 935 0 935 0 4 -1222z"/>
</g>
</svg>
